<?xml version="1.0" encoding="UTF-8" standalone="no"?>
<!-- Created with Inkscape (http://www.inkscape.org/) -->

<svg
   width="51.087208mm"
   height="67.737823mm"
   viewBox="0 0 51.087208 67.737823"
   version="1.1"
   id="svg5"
   xml:space="preserve"
   inkscape:version="1.2.2 (b0a8486541, 2022-12-01)"
   sodipodi:docname="FESway isotipo.svg"
   xmlns:inkscape="http://www.inkscape.org/namespaces/inkscape"
   xmlns:sodipodi="http://sodipodi.sourceforge.net/DTD/sodipodi-0.dtd"
   xmlns="http://www.w3.org/2000/svg"
   xmlns:svg="http://www.w3.org/2000/svg"><sodipodi:namedview
     id="namedview7"
     pagecolor="#ffffff"
     bordercolor="#000000"
     borderopacity="0.25"
     inkscape:showpageshadow="false"
     inkscape:pageopacity="0"
     inkscape:pagecheckerboard="0"
     inkscape:deskcolor="#d1d1d1"
     inkscape:document-units="mm"
     showgrid="false"
     showguides="true"
     inkscape:zoom="0.70910507"
     inkscape:cx="469.606"
     inkscape:cy="432.23496"
     inkscape:window-width="1366"
     inkscape:window-height="707"
     inkscape:window-x="0"
     inkscape:window-y="0"
     inkscape:window-maximized="1"
     inkscape:current-layer="layer1" /><defs
     id="defs2" /><g
     inkscape:label="Capa 1"
     inkscape:groupmode="layer"
     id="layer1"
     transform="translate(-31.201848,-197.69894)"><g
       id="g1199-7-6"
       transform="matrix(1.1867636,0,0,1.1867636,21.545801,150.1307)"><path
         id="path124-7-3"
         style="fill:#cf9024;fill-opacity:1;stroke-width:0.149288"
         d="M 29.660205,40.082308 A 21.523853,20.938026 0 0 0 8.1364543,61.020048 21.523853,20.938026 0 0 0 29.660205,81.958305 21.523853,20.938026 0 0 0 51.183956,61.020048 21.523853,20.938026 0 0 0 29.660205,40.082308 Z m 0.02687,5.905066 A 15.203538,14.789735 0 0 1 44.890283,60.777169 15.203538,14.789735 0 0 1 29.687077,75.566964 15.203538,14.789735 0 0 1 14.483354,60.777169 15.203538,14.789735 0 0 1 29.687077,45.987374 Z" /><path
         style="fill:#cf9024;fill-opacity:1;stroke-width:0.129116"
         d="m 10.421163,70.43512 15.408822,25.049767 7.581108,-0.218897 15.437834,-24.811045 -11.885906,7.183838 -15.438968,-0.057 z"
         id="path504-6-8"
         sodipodi:nodetypes="ccccccc" /><path
         style="fill:#cf9024;fill-opacity:1;stroke-width:0.166449"
         id="path609-7-5"
         sodipodi:type="arc"
         sodipodi:cx="29.533693"
         sodipodi:cy="92.71946"
         sodipodi:rx="4.7084193"
         sodipodi:ry="4.4406099"
         sodipodi:start="0.58350315"
         sodipodi:end="2.5144654"
         sodipodi:open="true"
         sodipodi:arc-type="arc"
         d="m 33.463047,95.166017 a 4.7084193,4.4406099 0 0 1 -3.826662,1.992996 4.7084193,4.4406099 0 0 1 -3.915177,-1.83371" /><g
         id="Layer1000-3-6"
         transform="matrix(0.10298074,0,0,0.10298074,-1.1670229,26.988128)"><path
           d="m 244.5378,237.5362 c 43.0653,-20.3482 81.5315,-16.8639 119.1614,-1.2543 56.5841,2.5087 48.7794,47.2464 28.0134,76.5142 -4.1811,20.3479 -11.7071,39.8596 -18.815,58.5354 -1.3991,6.5951 -2.4193,13.3795 -3.3448,20.0693 -1.2385,3.634 -2.1929,8.3098 -6.2717,9.1984 h -38.048 c -5.0179,-0.8963 -7.9529,-11.7337 0,-15.4701 h 22.1598 l -7.9441,-60.2078 c 8.4172,-6.0222 17.5215,-12.5598 20.6138,-24.0787 l -34.4114,-0.1717 5.8535,62.7165 -59.7897,0.4181 4.5992,-63.1346 c -11.4857,0.0473 -22.4561,0.6103 -33.9415,0.6579 3.0002,10.5477 10.6384,18.5187 19.3076,24.4287 l -6.2716,59.7503 22.5779,0.0947 c 7.3848,5.2013 3.3137,13.7163 0,15.4148 -13.1009,0.1392 -26.2017,0.2787 -39.3023,0.4181 -5.296,-3.4846 -6.1322,-8.3627 -5.0174,-13.3795 -6.8289,-24.808 -17.4211,-49.6159 -20.4874,-74.4236 -21.6022,-19.6512 -36.0966,-82.7858 31.3583,-76.0961 z"
           style="fill:#cf9024;fill-rule:evenodd"
           id="path803-6-1" /><path
           d="m 269.9906,420.6685 h 58.1692 c 9.1044,0.013 9.1044,17.0323 0,17.5606 h -58.1173 c -7.232,-0.5283 -7.9364,-17.3758 -0.0519,-17.5606 z"
           style="fill:#cf9024;fill-rule:evenodd"
           id="path805-5-1" /></g></g></g></svg>
